<?xml version="1.0" encoding="utf-8"?>
<!-- Generator: Adobe Illustrator 25.3.0, SVG Export Plug-In . SVG Version: 6.00 Build 0)  -->
<svg version="1.1" id="Laag_1" xmlns="http://www.w3.org/2000/svg" xmlns:xlink="http://www.w3.org/1999/xlink" x="0px" y="0px"
	 viewBox="0 0 800 800" style="enable-background:new 0 0 800 800;" xml:space="preserve">
<style type="text/css">
	.st0{fill:#FFFFFF;}
	.st1{font-family:'DESIGNERRegular';}
	.st2{font-size:1028.4375px;}
</style>
<g>
	<text transform="matrix(1 0 0 1 138.2021 809.3129)" class="st0 st1 st2">Y</text>
	<path class="st0" d="M421.49,251.78c23.6,0,44.86,2.53,64.33,7.49l47.21-80.35c-34.57-12.34-71.14-18.5-105.83-18.5
		c-40.81,0-79.94,7.24-116.11,20.49l45.69,79.83C377.35,254.91,399.05,251.78,421.49,251.78z"/>
	<path class="st0" d="M312.45,278.41l-44.55-78.11c-26.03,13.97-49.95,31.25-71.19,51.27l47.98,79.86
		C263.76,309.89,286.71,291.85,312.45,278.41z"/>
	<path class="st0" d="M588.04,320.3l39.02-85.65c-15.22-14.13-32.38-26.24-50.75-36.33l-45.74,78.13
		C551.49,287.51,570.31,302.2,588.04,320.3z"/>
	<path class="st0" d="M421.49,723.81c-130.39,0-236.01-105.64-236.01-236.02c0-41.29,10.59-80.09,29.21-113.84l-51.54-85.61
		c-43.27,55.22-69.03,124.38-69.03,199.46c0,180.82,149.42,327.38,333.09,327.38c69.48,0,146.56-25.7,199.85-75.19l-39.02-85.65
		C544.25,700.02,493.82,723.81,421.49,723.81z"/>
</g>
</svg>
