<svg id="Laag_1" data-name="Laag 1" xmlns="http://www.w3.org/2000/svg" viewBox="0 0 611.77 849.48"><defs><style>.cls-1{font-size:1028.44px;font-family:DESIGNERRegular, DESIGNER;}.cls-1,.cls-2{fill:#fff;}</style></defs><text class="cls-1" transform="translate(44.09 834.05)">Y</text><path class="cls-2" d="M421.49,251.78c23.6,0,44.86,2.53,64.33,7.5L533,178.93a318.2,318.2,0,0,0-105.83-18.5,336.75,336.75,0,0,0-116.11,20.49l45.7,79.83A236.45,236.45,0,0,1,421.49,251.78Z" transform="translate(-94.11 24.74)"/><path class="cls-2" d="M312.45,278.41,267.89,200.3a334.55,334.55,0,0,0-71.19,51.28l48,79.86A237.24,237.24,0,0,1,312.45,278.41Z" transform="translate(-94.11 24.74)"/><path class="cls-2" d="M588,320.3l39-85.64a254.46,254.46,0,0,0-50.74-36.33l-45.74,78.13C551.49,287.51,570.31,302.2,588,320.3Z" transform="translate(-94.11 24.74)"/><path class="cls-2" d="M421.49,723.81c-130.38,0-236-105.63-236-236A235,235,0,0,1,214.69,374l-51.54-85.61a322.2,322.2,0,0,0-69,199.46c0,180.83,149.42,327.38,333.09,327.38,69.48,0,146.56-25.7,199.85-75.19l-39-85.64C544.25,700,493.82,723.81,421.49,723.81Z" transform="translate(-94.11 24.74)"/></svg>